Coordinates
version=1
nRows=9
nColumns=38
inDegrees=yes

Units are S.I. units (second, meters, Newtons, ...)
Angles are in degrees.

endheader
time	pelvis_tilt	pelvis_list	pelvis_rotation	pelvis_tx	pelvis_ty	pelvis_tz	hip_flexion_r	hip_adduction_r	hip_rotation_r	knee_angle_r	ankle_angle_r	subtalar_angle_r	mtp_angle_r	hip_flexion_l	hip_adduction_l	hip_rotation_l	knee_angle_l	ankle_angle_l	subtalar_angle_l	mtp_angle_l	lumbar_extension	lumbar_bending	lumbar_rotation	arm_flex_r	arm_add_r	arm_rot_r	elbow_flex_r	pro_sup_r	wrist_flex_r	wrist_dev_r	arm_flex_l	arm_add_l	arm_rot_l	elbow_flex_l	pro_sup_l	wrist_flex_l	wrist_dev_l
      0.00000000	     11.75733267	     -1.36989263	     -0.51785012	     -0.00855949	      0.91423237	      0.00510283	    -16.30845557	      3.17778883	     -6.14414908	     -2.17036385	      0.72675326	      0.00000000	      0.00000000	    -14.68052742	     -1.61641326	    -10.70994332	     -4.81457170	     -1.20165550	      0.00000000	      0.00000000	    -23.19536253	     -0.65391661	      2.47250689	      1.00552684	     -2.31224782	    -20.32132932	     32.27200666	    114.69747315	      0.00000000	      0.00000000	      5.51346494	     -2.21951965	    -21.17800181	     30.30350262	    113.94795763	      0.00000000	      0.00000000
      0.01000000	     11.63367618	     -1.27155330	     -0.52644057	     -0.00849443	      0.91406448	      0.00509046	    -16.20103336	      3.07699190	     -6.13640304	     -2.13575636	      0.70429880	      0.00000000	      0.00000000	    -14.52342483	     -1.51622531	    -10.68495468	     -4.87647246	     -1.13040401	      0.00000000	      0.00000000	    -23.04349212	     -0.76851774	      2.39375280	      1.02539265	     -2.30118077	    -20.12101217	     32.14283335	    114.67687414	      0.00000000	      0.00000000	      5.43425921	     -2.25633727	    -21.04373851	     30.38023529	    113.96571498	      0.00000000	      0.00000000
      0.02000000	     11.57856293	     -1.22540537	     -0.53869850	     -0.00841980	      0.91398328	      0.00508739	    -16.15656784	      3.02764919	     -6.12069146	     -2.11665976	      0.69221431	      0.00000000	      0.00000000	    -14.45905767	     -1.46740296	    -10.67772822	     -4.90421036	     -1.10949997	      0.00000000	      0.00000000	    -22.96944537	     -0.82349492	      2.35769130	      1.03286829	     -2.29440000	    -20.00807222	     32.08201393	    114.54988783	      0.00000000	      0.00000000	      5.39118627	     -2.28048013	    -20.92623351	     30.42126082	    113.98363325	      0.00000000	      0.00000000
      0.03000000	     11.57196426	     -1.21718782	     -0.55146536	     -0.00834096	      0.91395941	      0.00508766	    -16.15739071	      3.01608078	     -6.10028714	     -2.10803255	      0.68871635	      0.00000000	      0.00000000	    -14.45888961	     -1.45540991	    -10.68343878	     -4.90677359	     -1.12227775	      0.00000000	      0.00000000	    -22.95066936	     -0.83652655	      2.35198378	      1.03238000	     -2.28989613	    -19.96162687	     32.07144740	    114.34054877	      0.00000000	      0.00000000	      5.37462515	     -2.29429385	    -20.83013597	     30.43547107	    113.99776707	      0.00000000	      0.00000000
      0.04000000	     11.59138369	     -1.23065826	     -0.56209873	     -0.00826473	      0.91396453	      0.00508612	    -16.18358724	      3.02662932	     -6.07898652	     -2.10466954	      0.69139539	      0.00000000	      0.00000000	    -14.49243382	     -1.46443381	    -10.69626958	     -4.89459103	     -1.15049709	      0.00000000	      0.00000000	    -22.96190313	     -0.82660534	      2.36299058	      1.02836083	     -2.28591351	    -19.95731565	     32.09069444	    114.07925478	      0.00000000	      0.00000000	      5.37370784	     -2.30066790	    -20.75885833	     30.43306054	    114.00415976	      0.00000000	      0.00000000
      0.05000000	     11.61793993	     -1.25168229	     -0.56960955	     -0.00819233	      0.91398121	      0.00507874	    -16.21782358	      3.04519635	     -6.06010002	     -2.10282663	      0.69757834	      0.00000000	      0.00000000	    -14.53539500	     -1.48108777	    -10.71065393	     -4.87697952	     -1.17921082	      0.00000000	      0.00000000	    -22.98144547	     -0.80900721	      2.37928473	      1.02392162	     -2.28159374	    -19.97286867	     32.12180050	    113.79724102	      0.00000000	      0.00000000	      5.37897026	     -2.30237736	    -20.71288145	     30.42313224	    113.99996166	      0.00000000	      0.00000000
      0.06000000	     11.63940862	     -1.27029563	     -0.57467520	     -0.00811954	      0.91400158	      0.00505927	    -16.24797154	      3.06132601	     -6.04579150	     -2.10081973	      0.70476150	      0.00000000	      0.00000000	    -14.57291968	     -1.49587341	    -10.72222765	     -4.86056111	     -1.19908797	      0.00000000	      0.00000000	    -22.99455807	     -0.79333066	      2.39334116	      1.02050789	     -2.27699728	    -19.99133001	     32.15177385	    113.52267823	      0.00000000	      0.00000000	      5.38374076	     -2.30163820	    -20.68947669	     30.41241264	    113.98387145	      0.00000000	      0.00000000
      0.07000000	     11.65055748	     -1.28121340	     -0.57880337	     -0.00804227	      0.91401758	      0.00502308	    -16.26792902	      3.06906605	     -6.03683909	     -2.09875590	      0.71106178	      0.00000000	      0.00000000	    -14.59875012	     -1.50324684	    -10.72843740	     -4.84863945	     -1.20660206	      0.00000000	      0.00000000	    -22.99447004	     -0.78387613	      2.40161909	      1.01828517	     -2.27266106	    -20.00222813	     32.17318485	    113.27823897	      0.00000000	      0.00000000	      5.38452136	     -2.29997996	    -20.68340308	     30.40490393	    113.95612425	      0.00000000	      0.00000000
      0.08000000	     11.65170705	     -1.28347815	     -0.58322793	     -0.00795998	      0.91401803	      0.00497429	    -16.27687252	      3.06672549	     -6.03280884	     -2.09769965	      0.71554096	      0.00000000	      0.00000000	    -14.61229530	     -1.50116000	    -10.72862548	     -4.84171859	     -1.20284887	      0.00000000	      0.00000000	    -22.98137168	     -0.78123721	      2.40353181	      1.01685419	     -2.26897342	    -20.00117859	     32.18347355	    113.07991211	      0.00000000	      0.00000000	      5.38067223	     -2.29844770	    -20.68812049	     30.40220481	    113.91821442	      0.00000000	      0.00000000
